<?xml version="1.0" standalone="no"?><!DOCTYPE svg PUBLIC "-//W3C//DTD SVG 1.1//EN" "http://www.w3.org/Graphics/SVG/1.1/DTD/svg11.dtd"><svg t="1773304912209" class="icon" viewBox="0 0 1024 1024" version="1.1" xmlns="http://www.w3.org/2000/svg" p-id="4811" xmlns:xlink="http://www.w3.org/1999/xlink" width="200" height="200"><path d="M0 0h1024v1024H0z" fill="#000000" p-id="4812"></path><path d="M479.8464 828.0576v77.8752H90.0096v-77.8752h389.8368zM389.8368 131.7888v293.888c-1.1776 57.4464-39.9872 141.7728-141.9264 141.7728-89.3952 0-139.9808-67.584-142.08-70.4512l68.1984-49.9712c0.8704 1.1776 28.0576 35.9424 73.8816 35.9424 49.5616 0 56.576-40.9088 57.344-58.5216V131.7888h84.5824z m133.7856-0.2048l7.5776 0.0512c68.5056 0.768 136.8576 0.3072 205.312 0.3072 53.4528 0 87.6544 22.0672 104.4992 67.1744 18.3808 49.1008 5.9904 99.84-32.3584 132.5056-3.7376 3.1232-7.7824 5.8368-16.128 12.0832 49.9712 22.1184 74.1888 57.344 75.0592 108.3904 0.768 47.4624-22.528 78.9504-63.744 98.304-21.6064 10.3424-45.056 16.0256-69.12 16.128H507.3408v-21.2992c0.6144-130.048 0.6144-259.84 0-389.8368V131.584h5.12l3.4304-0.0512z m173.2608 255.3856l-20.7872 0.2048v0.1024h-67.1744V480.768h113.3056c27.2896-1.6384 43.4176-21.6064 42.496-47.616-1.024-28.0576-18.3296-45.056-47.104-45.9264-13.7728-0.512-27.648 0-41.472 0z m-4.096-169.472h-10.0864c-8.0384 0.0512-14.4896 0.256-14.4896 0.256h-59.5968v38.7584l0.1536 20.3264v11.776l-0.1536 19.3024h20.4288c6.2976 0.1024 54.4768 0.9216 79.3088-0.9216 27.2896-2.048 40.6016-18.7904 40.1408-45.5168-0.4608-26.9824-14.1824-41.6256-41.7792-43.5712a237.0048 237.0048 0 0 0-13.9264-0.4096z" fill="#FFFFFF" p-id="4813"></path></svg>