<svg width="512" height="512" viewBox="0 0 128 128" xmlns="http://www.w3.org/2000/svg">
  <defs>
    <linearGradient id="grad" x1="0" y1="1" x2="1" y2="0">
      <stop offset="0%" stop-color="#6366f1"/>
      <stop offset="100%" stop-color="#a855f7"/>
    </linearGradient>
  </defs>
  <circle cx="64" cy="64" r="64" fill="url(#grad)"/>
  <g fill="#ffffff" transform="translate(25.6, 25.6) scale(0.6)">
     <path d="M64 128a64 64 0 1 1 64-64a64.07 64.07 0 0 1-64 64Zm0-122a58 58 0 1 0 58 58A58.07 58.07 0 0 0 64 6Z"/>
     <path d="M64 100a36 36 0 1 1 36-36a36 36 0 0 1-36 36Zm0-66a30 30 0 1 0 30 30a30 30 0 0 0-30-30Z"/>
  </g>
</svg>
