<?xml version="1.0" standalone="no"?><!DOCTYPE svg PUBLIC "-//W3C//DTD SVG 1.1//EN" "http://www.w3.org/Graphics/SVG/1.1/DTD/svg11.dtd"><svg t="1773304948590" class="icon" viewBox="0 0 1057 1024" version="1.1" xmlns="http://www.w3.org/2000/svg" p-id="5790" xmlns:xlink="http://www.w3.org/1999/xlink" width="206.4453125" height="200"><path d="M752.731642 125.034211C580.509862-41.663797 301.323885-41.663797 129.144925 125.034211s-172.17896 436.76334 0 603.761087c156.935063 151.96795 402.764311 165.37059 575.45711 40.336379l255.463734 247.327946a27.361939 27.361939 0 0 0 37.724363 0l52.069041-50.399063a25.263762 25.263762 0 0 0 0-36.525405l-255.463734-247.327946c129.144925-167.297487 115.271266-405.247867-41.663797-557.172998z m-62.345826 543.427799c-137.794552 133.341278-361.143334 133.341278-498.895065 0a333.995495 333.995495 0 0 1 0-482.96605c137.751732-133.641018 361.143334-133.641018 498.895065-0.12846a333.995495 333.995495 0 0 1 0 483.09451z" fill="#00A83B" p-id="5791"></path><path d="M195.001985 463.825539l-19.78281-5.994791a321.577714 321.577714 0 0 0 16.871055-34.941067 60.162009 60.162009 0 0 0 4.624553-17.898733H171.279741l-10.191145-26.76246 38.109743-1.241778V310.273251h37.210524v5.951971l35.155166-0.942039a129.144925 129.144925 0 0 0 3.468415-22.651745l47.958328 5.695051a81.914536 81.914536 0 0 0-5.780692 7.836048 51.383922 51.383922 0 0 1-5.523771 7.236569l84.012713-3.125855-2.183817 60.718668 32.286231-1.241778v35.240807h-33.742109L389.661411 464.425018l-70.053414-9.420386v-22.052266l38.966141-3.768155v-24.193263H231.22765a98.99969 98.99969 0 0 1-13.1029 28.303977q-9.163466 13.48828-23.122765 30.530614z m31.686752 0v11.004723l173.506378-11.004723-4.067894 63.844523 29.674215-1.584337v37.124884l-255.806293-0.29974-5.823511-23.893524 29.973955-1.584337-4.281994-73.607469z m0 72.36569l23.807884-1.284598v-34.255948h-23.807884z m92.405421-163.186773h3.211495l36.054385-1.241778v-26.59118H236.580142q0 22.052267-0.599479 31.472653l0.29974-0.942039 41.278417-1.241778h2.612016a26.33426 26.33426 0 0 1-3.211495-11.946762 15.629276 15.629276 0 0 1 3.768155-10.919083 11.946762 11.946762 0 0 1 9.035006-4.281994 14.473138 14.473138 0 0 1 5.523772 0.942039 11.218823 11.218823 0 0 1 4.281993 4.281993 11.176003 11.176003 0 0 1 4.281994-3.896614 12.417781 12.417781 0 0 1 5.395312-1.327418 11.946762 11.946762 0 0 1 8.992186 4.281994 16.400035 16.400035 0 0 1 3.768154 11.047543 23.636604 23.636604 0 0 1-2.012537 9.120646 4.281994 4.281994 0 0 1-0.899218 1.241778z m-38.537942 84.655012a66.41372 66.41372 0 0 1-10.790624-8.649627 53.781839 53.781839 0 0 1-8.563987-11.775482 27.190659 27.190659 0 0 1-3.425595-12.845981 16.271575 16.271575 0 0 1 3.768155-11.004723 12.374961 12.374961 0 0 1 9.334746-4.281993 11.946762 11.946762 0 0 1 5.523771 1.241778 14.644418 14.644418 0 0 1 4.281994 4.281993 10.790624 10.790624 0 0 1 4.281993-4.281993 12.845981 12.845981 0 0 1 5.523772-1.241778 11.732662 11.732662 0 0 1 9.291926 4.281993 16.314395 16.314395 0 0 1 3.810974 11.004723 25.691961 25.691961 0 0 1-2.055357 9.762946 54.552598 54.552598 0 0 1-5.523771 9.120646 49.542665 49.542665 0 0 1-7.536309 8.178608 63.245044 63.245044 0 0 1-7.750408 6.38017z m-1.455878 75.491546l27.319119-1.241778v-31.301373H282.183373z m56.693594-2.826116l27.319119-1.241778v-28.475257h-24.535823zM519.106075 568.90566l-56.993334-14.815698v-16.014655l27.618859-6.294531v-66.07116l-27.875778 10.062685-6.97965-39.008961 34.855428-5.695052V372.233697h-28.774997l-5.823511-24.921202 34.598508-4.753013V286.037168l34.255948 6.29453-0.856399 45.003752 20.339469-2.826116v37.724363H522.40321l-0.856398 51.598022a212.044319 212.044319 0 0 0 23.550964-6.894009v21.409967c-10.490884 5.909151-18.498212 10.276784-24.150443 13.23136z m185.45314 0a756.542616 756.542616 0 0 1-74.421048-30.230874 409.058842 409.058842 0 0 1-84.312452 30.230874l-7.836048-19.82563a253.322737 253.322737 0 0 0 63.073764-24.878382q-19.483071-10.362424-38.537941-21.709708l9.891405-15.714916q21.409968 9.463206 55.665916 20.467929a196.543503 196.543503 0 0 0 29.973954-26.762459h-103.795523l-5.780691-25.178122 63.844523-5.652232v-18.241292h-59.21997l-5.823511-126.190349h29.074736v8.563987a107.606497 107.606497 0 0 0 27.062199-20.767669l8.563987 32.414691v-39.39434l34.255948 5.052752-4.281993 109.148015 37.510263-3.468415v-16.357215h-26.162981l-4.624553-22.951485 30.787534-5.652232V336.992891h-27.319119l-4.667373-28.004238 63.972984-9.420386-5.823512 131.842581h-64.743742l-0.556659 15.714916 49.970865-4.281993 16.271575 32.414691a232.426609 232.426609 0 0 1-42.819935 42.477375q25.006842 6.93683 52.88262 12.289322z m-125.291131-195.387365v32.714431l33.05699-3.254315V333.224736q-15.971836 2.483556-32.84289 3.468415v15.415177a9.249106 9.249106 0 0 1 6.123251-2.183817 8.264248 8.264248 0 0 1 4.067894 0.942039 6.76555 6.76555 0 0 1 3.168675 3.125855 7.150929 7.150929 0 0 1 3.511235-3.297135 11.218823 11.218823 0 0 1 4.067893-0.770759 9.249106 9.249106 0 0 1 7.279389 3.425595 12.203682 12.203682 0 0 1 2.868936 8.563987 17.127974 17.127974 0 0 1-1.712797 7.236569 34.255948 34.255948 0 0 1-4.067894 6.936829 44.789652 44.789652 0 0 1-5.823511 6.251711 31.472652 31.472652 0 0 1-6.123251 4.753013 45.817331 45.817331 0 0 1-8.135788-6.63709 44.190173 44.190173 0 0 1-5.438132-6.93683z" fill="#E60012" p-id="5792"></path></svg>