<?xml version="1.0" standalone="no"?><!DOCTYPE svg PUBLIC "-//W3C//DTD SVG 1.1//EN" "http://www.w3.org/Graphics/SVG/1.1/DTD/svg11.dtd"><svg t="1773042027956" class="icon" viewBox="0 0 1024 1024" version="1.1" xmlns="http://www.w3.org/2000/svg" p-id="5984" xmlns:xlink="http://www.w3.org/1999/xlink" width="200" height="200"><path d="M327 519.4s41.1-8.4 46.9-3.3l20.2 149.3-33.6 4.1c0-0.1-33.5-150.1-33.5-150.1z m15.9-82.1h23.5l6.7 57.8h-21.8l-8.4-57.8z m-26.8 5.8l21.8-1.9 6.7 56.6-19.1 3.1c0 0.1-9.4-57.8-9.4-57.8z m57.1-70.6s47.8-5.1 49.5 0l23.5 281.8h-36.5l-36.5-281.8zM457 521.1h46.1v151.8h-33.6L457 521.1z m23.1-77.2h23.1v57h-23.1v-57z m-28.2 0H472v57h-20.1v-57zM174.4 558.8l-12.6-230.6c-7.5 6.7-63.7 25.2-63.7 25.2 19.2 66.2 45.3 342.1 45.3 342.1 132.1 4.2 187-53.6 190.3-67 2-8 2-16.4 0-24.4-31.8-52.9-159.3-45.3-159.3-45.3z m39.9 99.8L206 593l61 25.7-52.7 39.9z m539.6-54.5c-31.9-52.8-159.4-45.3-159.4-45.3l-12.6-230.6c-7.5 6.7-63.6 25.2-63.6 25.2 19.2 66.2 45.3 342.1 45.3 342.1 132.1 4.2 187-53.6 190.3-67 2-8.1 2-16.4 0-24.4z m-119.5 54.5l-8.3-65.6 61 25.7-52.7 39.9z m112.7-139.2s41.1-8.4 46.9-3.3l20.1 149.3-33.6 4.1-33.4-150.1z m16-82.1h23.5l6.7 57.8h-21.8l-8.4-57.8z m-26.9 5.8l21.8-1.9 6.7 56.6-19.1 3.1-9.4-57.8z m57-70.6s47.8-5.1 49.5 0l23.5 281.7h-36.5l-36.5-281.7z m84 148.6h46.1v151.8h-33.6l-12.5-151.8z m23-77.2h23.1v57h-23.1v-57z m-28.1 0h20.1v57h-20.1v-57z" fill="#FF6B86" p-id="5985"></path></svg>